<svg xmlns="http://www.w3.org/2000/svg" width="500" height="500" viewBox="0 0 500 500">
<g>
<path d="M 0.00 0.00 L 500.00 0.00 L 500.00 500.00 L 0.00 500.00 ZM 261.89 243.17 C292.48,258.39 318.08,270.88 318.79,270.92 C320.72,271.04 319.14,268.64 310.83,258.88 C306.80,254.15 299.45,245.41 294.50,239.47 C289.55,233.53 283.70,226.55 281.50,223.97 C279.30,221.39 273.90,214.91 269.50,209.57 C265.10,204.23 258.58,196.39 255.00,192.14 C251.43,187.89 245.57,180.91 242.00,176.62 C238.43,172.33 232.79,165.60 229.48,161.66 C226.17,157.72 222.27,152.93 220.82,151.00 C219.36,149.07 216.18,145.36 213.74,142.75 C208.51,137.14 204.91,136.59 198.50,140.43 C189.48,145.85 182.12,150.35 175.50,154.50 C171.65,156.91 165.12,160.89 161.00,163.35 C148.32,170.89 145.17,173.55 144.46,177.35 C144.04,179.61 144.36,181.80 145.42,183.84 C147.06,187.01 149.20,188.15 192.89,209.08 C200.26,212.61 231.31,227.95 261.89,243.17 ZM 336.50 239.73 C340.35,244.25 343.65,247.95 343.84,247.97 C344.62,248.04 342.59,238.71 339.48,228.00 C331.65,200.99 324.69,176.54 318.43,154.00 C316.98,148.77 312.93,134.82 309.43,123.00 C305.93,111.18 302.59,99.59 302.00,97.25 C300.22,90.23 297.96,89.39 284.64,90.79 C264.73,92.88 235.39,96.90 232.76,97.90 C229.33,99.21 227.00,102.74 227.00,106.66 C227.00,108.99 228.29,111.47 231.75,115.77 C239.26,125.09 248.11,135.77 253.00,141.40 C255.48,144.25 261.77,151.68 267.00,157.91 C272.23,164.14 282.46,176.28 289.75,184.87 C297.03,193.47 305.81,203.82 309.25,207.88 C312.69,211.94 317.19,217.17 319.25,219.49 C321.31,221.82 323.00,223.97 323.00,224.26 C323.00,224.56 324.46,226.31 326.25,228.16 C328.04,230.01 332.65,235.21 336.50,239.73 ZM 131.24 299.96 C132.48,300.46 141.38,300.91 151.00,300.95 C177.80,301.08 311.30,298.91 313.00,298.32 C313.94,298.00 312.27,296.71 308.50,294.85 C300.11,290.72 247.82,267.87 214.50,253.78 C204.05,249.36 190.77,243.74 185.00,241.29 C179.23,238.84 172.93,236.26 171.00,235.57 C164.60,233.25 163.02,234.60 151.32,252.34 C145.46,261.23 137.82,272.77 134.34,278.00 C130.86,283.23 127.76,288.85 127.44,290.50 C126.67,294.46 128.42,298.83 131.24,299.96 ZM 181.38 380.28 C182.77,381.78 184.94,383.00 186.20,383.00 C187.47,383.00 196.99,378.93 207.36,373.97 C217.73,369.00 236.63,360.19 249.36,354.39 C262.09,348.58 274.30,343.00 276.50,341.98 C278.70,340.96 284.93,338.08 290.34,335.57 C295.76,333.05 300.52,331.00 300.94,331.00 C301.35,331.00 302.55,330.04 303.60,328.86 L 305.50 326.73 L 268.50 327.37 C202.08,328.53 189.11,329.09 186.91,330.89 C184.71,332.70 183.80,337.27 181.49,358.00 C180.66,365.42 179.73,372.86 179.42,374.53 C178.99,376.87 179.43,378.18 181.38,380.28 ZM 257.31 415.94 C260.55,417.16 263.13,415.37 269.43,407.50 C272.52,403.65 277.94,396.90 281.48,392.50 C297.54,372.53 300.59,368.69 301.96,366.66 C302.76,365.47 305.17,362.36 307.30,359.75 C311.65,354.43 310.58,353.48 304.14,356.96 C298.13,360.21 253.21,381.80 251.01,382.50 C249.89,382.85 248.33,384.40 247.53,385.93 C246.22,388.47 246.35,389.70 248.84,399.22 C251.80,410.55 253.87,414.64 257.31,415.94 ZM 309.55 410.88 C313.19,415.20 316.65,415.09 318.52,410.60 C320.70,405.38 328.13,377.88 327.79,376.24 C327.61,375.35 325.22,377.25 321.50,381.26 C314.54,388.75 305.70,398.96 304.65,400.72 C303.78,402.17 305.89,406.53 309.55,410.88 ZM 2.58 199.36 C3.24,201.06 6.00,201.68 6.00,200.12 C6.00,198.96 3.09,196.58 2.45,197.21 C2.18,197.49 2.24,198.45 2.58,199.36 Z" fill="rgb(17,17,17)"/>
<path d="M 2.58 199.36 C2.24,198.45 2.18,197.49 2.45,197.21 C3.09,196.58 6.00,198.96 6.00,200.12 C6.00,201.68 3.24,201.06 2.58,199.36 Z" fill="rgb(156,156,156)"/>
<path d="M 257.31 415.94 C253.87,414.64 251.80,410.55 248.84,399.22 C246.35,389.70 246.22,388.47 247.53,385.93 C248.33,384.40 249.89,382.85 251.01,382.50 C253.21,381.80 298.13,360.21 304.14,356.96 C310.58,353.48 311.65,354.43 307.30,359.75 C305.17,362.36 302.76,365.47 301.96,366.66 C300.59,368.69 297.54,372.53 281.48,392.50 C277.94,396.90 272.52,403.65 269.43,407.50 C263.13,415.37 260.55,417.16 257.31,415.94 ZM 309.55 410.88 C305.89,406.53 303.78,402.17 304.65,400.72 C305.70,398.96 314.54,388.75 321.50,381.26 C325.22,377.25 327.61,375.35 327.79,376.24 C328.13,377.88 320.70,405.38 318.52,410.60 C316.65,415.09 313.19,415.20 309.55,410.88 ZM 181.38 380.28 C179.43,378.18 178.99,376.87 179.42,374.53 C179.73,372.86 180.66,365.42 181.49,358.00 C183.80,337.27 184.71,332.70 186.91,330.89 C189.11,329.09 202.08,328.53 268.50,327.37 L 305.50 326.73 L 303.60 328.86 C302.55,330.04 301.35,331.00 300.94,331.00 C300.52,331.00 295.76,333.05 290.34,335.57 C284.93,338.08 278.70,340.96 276.50,341.98 C274.30,343.00 262.09,348.58 249.36,354.39 C236.63,360.19 217.73,369.00 207.36,373.97 C196.99,378.93 187.47,383.00 186.20,383.00 C184.94,383.00 182.77,381.78 181.38,380.28 ZM 131.24 299.96 C128.42,298.83 126.67,294.46 127.44,290.50 C127.76,288.85 130.86,283.23 134.34,278.00 C137.82,272.77 145.46,261.23 151.32,252.34 C163.02,234.60 164.60,233.25 171.00,235.57 C172.93,236.26 179.23,238.84 185.00,241.29 C190.77,243.74 204.05,249.36 214.50,253.78 C247.82,267.87 300.11,290.72 308.50,294.85 C312.27,296.71 313.94,298.00 313.00,298.32 C311.30,298.91 177.80,301.08 151.00,300.95 C141.38,300.91 132.48,300.46 131.24,299.96 ZM 261.89 243.17 C231.31,227.95 200.26,212.61 192.89,209.08 C149.20,188.15 147.06,187.01 145.42,183.84 C144.36,181.80 144.04,179.61 144.46,177.35 C145.17,173.55 148.32,170.89 161.00,163.35 C165.12,160.89 171.65,156.91 175.50,154.50 C182.12,150.35 189.48,145.85 198.50,140.43 C204.91,136.59 208.51,137.14 213.74,142.75 C216.18,145.36 219.36,149.07 220.82,151.00 C222.27,152.93 226.17,157.72 229.48,161.66 C232.79,165.60 238.43,172.33 242.00,176.62 C245.57,180.91 251.43,187.89 255.00,192.14 C258.58,196.39 265.10,204.23 269.50,209.57 C273.90,214.91 279.30,221.39 281.50,223.97 C283.70,226.55 289.55,233.53 294.50,239.47 C299.45,245.41 306.80,254.15 310.83,258.88 C319.14,268.64 320.72,271.04 318.79,270.92 C318.08,270.88 292.48,258.39 261.89,243.17 ZM 336.50 239.73 C332.65,235.21 328.04,230.01 326.25,228.16 C324.46,226.31 323.00,224.56 323.00,224.26 C323.00,223.97 321.31,221.82 319.25,219.49 C317.19,217.17 312.69,211.94 309.25,207.88 C305.81,203.82 297.03,193.47 289.75,184.87 C282.46,176.28 272.23,164.14 267.00,157.91 C261.77,151.68 255.48,144.25 253.00,141.40 C248.11,135.77 239.26,125.09 231.75,115.77 C228.29,111.47 227.00,108.99 227.00,106.66 C227.00,102.74 229.33,99.21 232.76,97.90 C235.39,96.90 264.73,92.88 284.64,90.79 C297.96,89.39 300.22,90.23 302.00,97.25 C302.59,99.59 305.93,111.18 309.43,123.00 C312.93,134.82 316.98,148.77 318.43,154.00 C324.69,176.54 331.65,200.99 339.48,228.00 C342.59,238.71 344.62,248.04 343.84,247.97 C343.65,247.95 340.35,244.25 336.50,239.73 Z" fill="rgb(253,253,253)"/>
</g>
</svg>